<svg xmlns="http://www.w3.org/2000/svg" height="73.261" width="67.525" viewBox="0 0 67.525002 73.261002"><path d="M0 48.266v9.576h3.573v-9.576H0zm48.972-35.592v9.703h3.573V4.82c0-2.66-2.18-4.82-4.842-4.82h-3.075v7.853c2.433.27 4.344 2.307 4.344 4.82z"/><path d="M47.703 0H4.86C2.18 0 0 2.16 0 4.82v63.183c0 2.68 2.18 4.842 4.84 4.842h32.91V64.41H8.435c-1.495 0-2.844-.665-3.74-1.724v-.023c-.705-.85-1.12-1.91-1.12-3.074V12.673c0-2.68 2.18-4.84 4.86-4.84h35.674c.166 0 .355 0 .52.02 2.433.27 4.344 2.306 4.344 4.82v9.703h3.573V4.82c0-2.66-2.18-4.82-4.842-4.82zM26.51 66.07c1.496 0 2.723 1.208 2.723 2.702 0 1.516-1.227 2.72-2.722 2.72-1.515 0-2.72-1.204-2.72-2.72 0-1.494 1.205-2.7 2.72-2.7z"/><path d="M64.325 25.39h-20.88c-1.77 0-3.18 1.413-3.18 3.18v41.513c0 1.203.645 2.223 1.62 2.762.457.27.997.416 1.56.416h20.88c1.765 0 3.2-1.413 3.2-3.177V28.57c0-1.768-1.435-3.18-3.2-3.18zm-21.712 8.33c0-1.35.832-2.492 2.015-2.95.354-.145.75-.228 1.165-.228h16.185c1.766 0 3.2 1.415 3.2 3.18v30.812c0 1.766-1.435 3.18-3.2 3.18H45.793c-1.746 0-3.18-1.414-3.18-3.18V33.72zM53.75 72.367c-.976 0-1.767-.79-1.767-1.787 0-.167.02-.312.083-.456.022-.19.105-.355.208-.5 0 0 0-.02.02-.04.313-.458.853-.77 1.455-.77.996 0 1.785.79 1.785 1.765 0 .997-.788 1.786-1.785 1.786z"/></svg>