<svg xmlns="http://www.w3.org/2000/svg" viewBox="0 0 100 100"><path d="M87.91 28H37.047c-.224-2-1.58-3-3.23-3H29.96L46.405.864c.163-.24.1-.502-.14-.664-.24-.162-.564-.07-.725.17L29.392 24.205l-5.08-13.67c-.102-.27-.402-.402-.672-.304-.27.102-.408.28-.308.55L28.66 25H25.11c-1.65 0-3.005 1-3.23 3H7.946C3.333 28 0 31.82 0 36.432v54.74C0 95.785 3.333 100 7.945 100H87.91c4.612 0 9.09-4.216 9.09-8.827v-54.74C97 31.82 92.522 28 87.91 28zm-3.854 60.153c1.87 0 3.392 1.52 3.392 3.393s-1.52 3.393-3.392 3.393-3.393-1.522-3.393-3.394 1.522-3.393 3.393-3.393zm0-2.296c-1.87 0-3.393-1.52-3.393-3.393s1.52-3.393 3.393-3.393 3.392 1.522 3.392 3.394-1.52 3.393-3.392 3.393zM71 39.347v48.91C71 91.943 68.262 95 65.46 95H10.097C7.295 95 5 91.942 5 88.258v-48.91C5 35.662 7.295 33 10.098 33h55.36C68.263 33 71 35.663 71 39.347z"/></svg>