<svg xmlns="http://www.w3.org/2000/svg" height="91.781" width="100" viewBox="0 0 99.999519 91.780998"><path d="M99.376 34.377L87.82 26.293V1.485C87.82.665 87.153 0 86.327 0H74.918c-.822 0-1.485.666-1.485 1.485v14.74L50.843.414c-.5-.36-1.195-.36-1.694 0L.63 34.378c-.32.23-.547.562-.61.965-.064.382.02.784.244 1.11l6.606 9.424c.295.416.756.64 1.228.64.288 0 .59-.078.854-.272l2.897-2.026v46.07c0 .82.673 1.493 1.495 1.493H38.85c.823 0 1.49-.672 1.49-1.49V55.91h19.314v34.38c0 .818.674 1.49 1.496 1.49h25.312c.822 0 1.48-.672 1.48-1.49V44.07l3.11 2.172c.68.48 1.61.32 2.074-.367l6.603-9.424c.228-.326.315-.73.246-1.11-.062-.403-.288-.736-.6-.966z"/></svg>