<svg xmlns="http://www.w3.org/2000/svg" height="85.661" width="76.073" viewBox="0 0 76.072998 85.661491"><path d="M57.458 32.635c-1.69 5.972-3.226 6.3-4.15 5.672-1.145 6.433-4.605 14.722-15.763 15.157-11.334-.87-14.925-9.356-15.935-15.89-.906-.073-2.104-1.35-3.39-5.896-1.76-6.222.11-7.14 1.693-6.992-1.164-3.268-1.188-6.484-.408-9.458.82-3.502 2.712-6.308 4.835-8.477 1.34-1.425 2.86-2.674 4.472-3.695 1.31-.912 2.76-1.692 4.345-2.227h.002c1.236-.42 2.554-.69 3.95-.754C41.42-.3 44.683.78 47.03 2.17c3.5 1.93 4.828 4.488 4.828 4.488s8.81.62 4.952 19.086c1.186.41 2.022 2.036.648 6.89zM38.038 85.66c14.85 0 28.294-6.01 38.035-15.733-.218-4.202-1.64-9.537-7.206-10.952-9.545-2.427-17.3-7.887-17.3-7.887l-6.052 19.137-1.14 3.603-.017-.05-.994 3.054-3.19-9.052c8.07-11.257-2.137-10.82-2.137-10.82S27.83 56.523 35.9 67.78L32.68 76.9l-.986-3.083-7.187-22.73s-7.756 5.46-17.3 7.886C1.638 60.39.216 65.726 0 69.926c9.742 9.723 23.187 15.735 38.037 15.735z"/></svg>