<svg xmlns="http://www.w3.org/2000/svg" viewBox="0 0 100 100"><path d="M69.42 39.805c-1.688 5.972-3.225 6.3-4.15 5.672-1.144 6.433-4.604 14.722-15.762 15.157-11.334-.87-14.925-9.356-15.935-15.89-.906-.073-2.104-1.35-3.39-5.896-1.76-6.222.11-7.14 1.693-6.992-1.164-3.268-1.188-6.484-.408-9.458.82-3.502 2.712-6.308 4.835-8.477 1.34-1.425 2.86-2.674 4.472-3.695 1.31-.912 2.76-1.692 4.345-2.227h.002c1.237-.42 2.555-.69 3.95-.754 4.31-.373 7.575.706 9.92 2.095 3.5 1.93 4.83 4.488 4.83 4.488s8.808.62 4.95 19.086c1.187.41 2.023 2.036.65 6.89zM50 92.83c14.85 0 28.295-6.01 38.036-15.733-.218-4.202-1.64-9.537-7.206-10.952-9.545-2.427-17.3-7.887-17.3-7.887l-6.052 19.137-1.14 3.603-.017-.05-.993 3.054-3.19-9.052C60.207 63.693 50 64.13 50 64.13s-10.206-.438-2.138 10.82l-3.22 9.122-.985-3.083-7.187-22.73s-7.756 5.46-17.3 7.886c-5.568 1.415-6.99 6.75-7.207 10.95C21.705 86.82 35.15 92.832 50 92.832z"/></svg>