<svg xmlns="http://www.w3.org/2000/svg" height="92.724" width="51" viewBox="0 0 50.999962 92.723846"><path d="M35.013 69.518l6.003 18.476 1.16 3.568 3.562-1.163 1.336-.432 1.336-.436c1.963-.64 3.043-2.76 2.408-4.723L44.815 66.33c-.64-1.96-2.763-3.044-4.725-2.405l-1.338.43-1.336.436-3.56 1.16 1.157 3.565zM14.3 5.774l6.004 18.476 1.16 3.564 3.562-1.158 1.333-.434 1.337-.435c1.964-.638 3.043-2.764 2.406-4.723l-6-18.476C23.463.628 21.34-.455 19.377.183L18.04.617l-1.335.434-3.562 1.16L14.3 5.773zM10.18 3.178C.9 7.585-4.65 25.534 5.2 54.185c8.875 28.97 23.918 40.23 34.012 38.336.15-.028.585-.188.585-.188l-1.156-3.56-6.007-18.48-1.155-3.565s-.44.145-.588.19c-4.787 1.556-9.53-12.893-11.083-17.477-1.438-4.62-6.094-19.1-1.303-20.656l.582-.19-1.156-3.563-6.004-18.476-1.16-3.565c0-.002-.445.125-.586.188z"/></svg>