<svg xmlns="http://www.w3.org/2000/svg" viewBox="0 0 100 100"><path d="M59.513 73.156l6.003 18.476 1.16 3.568 3.562-1.163 1.336-.43 1.336-.437c1.963-.64 3.043-2.76 2.408-4.723L69.315 69.97c-.64-1.96-2.763-3.044-4.725-2.405l-1.338.43-1.336.436-3.56 1.16 1.157 3.566zM38.8 9.412l6.004 18.476 1.16 3.564 3.562-1.158 1.333-.434 1.337-.435c1.964-.638 3.043-2.764 2.406-4.723l-6-18.476c-.64-1.96-2.763-3.043-4.726-2.405l-1.337.435-1.335.434-3.562 1.157L38.8 9.412zM34.68 6.816c-9.28 4.407-14.83 22.356-4.98 51.007 8.875 28.97 23.918 40.23 34.012 38.336.15-.03.585-.19.585-.19l-1.156-3.56-6.007-18.48-1.155-3.565s-.44.145-.588.19c-4.787 1.556-9.53-12.893-11.083-17.477-1.438-4.62-6.094-19.1-1.303-20.656l.582-.19-1.156-3.563-6.004-18.478-1.16-3.565s-.445.126-.586.19z"/></svg>