<svg xmlns="http://www.w3.org/2000/svg" viewBox="0 0 100 100"><path d="M61.818 13.915c3.044 0 6.134.443 9.17 1.395 14.627 4.562 22.38 18.95 17.317 32.148C84.295 57.9 73.437 64.47 61.822 64.47c-3.045 0-6.135-.442-9.168-1.394-14.627-4.56-22.384-18.957-17.317-32.148 4.005-10.46 14.86-17.013 26.48-17.013m0 6.84c-8.697 0-16.458 4.988-19.304 12.412-1.79 4.65-1.458 9.647.928 14.077 2.388 4.42 6.54 7.744 11.695 9.36 2.178.673 4.422 1.01 6.687 1.01 8.696 0 16.46-4.98 19.302-12.396 1.786-4.66 1.46-9.655-.924-14.085-2.395-4.422-6.547-7.744-11.696-9.352-2.175-.68-4.423-1.024-6.686-1.024zM22.39 82.71c-3.1 2.544-7.67 2.083-10.204-1.024-2.536-3.11-2.078-7.695 1.022-10.238l16.837-13.822c3.1-2.543 6.732-1.316 9.268 1.793 2.535 3.11 3.013 6.927-.087 9.472L22.39 82.712z"/></svg>