<svg height="67" viewBox="0 0 67 67" width="67" xmlns="http://www.w3.org/2000/svg"><path d="M18.557 29.106s2.816-2.22 3.755-1.11c.938 1.11 4.52 14.51 5.718 16.98 1.044 2.168 3.924 5.033 7.08 2.986 3.157-2.046 13.653-11.007 15.53-21.588 1.88-10.58-12.63-8.363-14.165.854 3.84-2.306 5.89.936 3.926 4.608-1.96 3.668-3.754 6.06-4.692 6.06-.937 0-1.658-2.455-2.73-6.745-1.11-4.434-1.104-12.423-5.717-11.517-4.35.854-10.067 7.68-10.067 7.68l1.364 1.793zM34 64C17.432 64 4 50.568 4 34 4 17.43 17.432 4 34 4s30 13.43 30 30c0 16.568-13.432 30-30 30z" fill-rule="evenodd" clip-rule="evenodd" fill="#63B4E4"/></svg>