<svg xmlns="http://www.w3.org/2000/svg" height="84.08" width="68.246" viewBox="0 0 68.246002 84.080299"><path d="M29.804 77.852l4.255 6.228C21.185 84.02 9.355 79.55 0 72.103v-5.868s.248-4.81 4.954-7.025 7.1-2.656 7.265-2.745 6.356-1.535 8.558-3.72L15.08 66.944l6.606-.974 8.118 11.882zM63.292 59.21c-4.706-2.214-7.1-2.656-7.265-2.745s-6.357-1.535-8.56-3.72l5.698 14.198-6.605-.974-8.118 11.882-4.255 6.228c12.873-.06 24.703-4.53 34.06-11.977v-5.868s-.25-4.81-4.955-7.025zM43.756 47.535s10.613.325 15.65-4.82c0 0-7.33-2.075-6.013-15.416C54.71 13.96 51.75 2.244 41.03 3.236c0 0-4.65-5.593-13.9-2.076-3.175 1.21-11.697 4.262-11.263 22.746S9.297 42.5 9.297 42.5s3.61 5.25 15.867 5.143v5.516l8.897 30.92h.122l9.574-30.92v-5.625z"/></svg>