<svg xmlns="http://www.w3.org/2000/svg" viewBox="0 0 100 100"><path d="M45.68 85.812l4.256 6.228c-12.873-.06-24.703-4.53-34.06-11.977v-5.868s.25-4.81 4.955-7.025c4.707-2.214 7.1-2.656 7.266-2.745.165-.09 6.357-1.535 8.56-3.72l-5.698 14.198 6.605-.974L45.68 85.81zM79.17 67.17c-4.707-2.214-7.1-2.656-7.266-2.745-.165-.09-6.357-1.535-8.56-3.72l5.698 14.198-6.605-.974L54.32 85.81l-4.256 6.228c12.873-.06 24.703-4.53 34.06-11.977v-5.868s-.25-4.81-4.955-7.025zM59.632 55.495s10.613.325 15.65-4.82c0 0-7.33-2.075-6.013-15.416 1.317-13.34-1.642-25.055-12.364-24.063 0 0-4.648-5.593-13.898-2.076-3.176 1.21-11.698 4.262-11.264 22.746s-6.57 18.593-6.57 18.593 3.61 5.25 15.867 5.143v5.516l8.898 30.92h.12l9.575-30.92v-5.625z"/></svg>