<svg xmlns:rdf="http://www.w3.org/1999/02/22-rdf-syntax-ns#" xmlns="http://www.w3.org/2000/svg" enable-background="new 0 0 100 100" xml:space="preserve" height="73.261" width="67.525" version="1.1" y="0px" x="0px" xmlns:cc="http://creativecommons.org/ns#" xmlns:dc="http://purl.org/dc/elements/1.1/" viewBox="0 0 67.525002 73.261002"><metadata><rdf:RDF><cc:Work rdf:about=""><dc:format>image/svg+xml</dc:format><dc:type rdf:resource="http://purl.org/dc/dcmitype/StillImage"/><dc:title/></cc:Work></rdf:RDF></metadata><path d="m0 48.266v9.576h3.573v-9.576h-3.573zm48.972-35.592v9.703h3.573v-17.557c0-2.659-2.181-4.82-4.842-4.82h-3.075v7.853c2.433 0.271 4.344 2.307 4.344 4.821z"/><path d="m47.703 0h-42.842c-2.68 0-4.861 2.161-4.861 4.82v63.183c0 2.68 2.181 4.842 4.841 4.842h32.91v-8.436h-29.317c-1.495 0-2.844-0.664-3.739-1.723v-0.023c-0.706-0.85-1.122-1.91-1.122-3.074v-46.915c0-2.68 2.182-4.841 4.861-4.841h35.674c0.166 0 0.355 0 0.52 0.02 2.433 0.271 4.344 2.307 4.344 4.821v9.703h3.573v-17.557c0-2.659-2.181-4.82-4.842-4.82zm-21.192 66.071c1.495 0 2.722 1.207 2.722 2.701 0 1.516-1.227 2.721-2.722 2.721-1.516 0-2.721-1.205-2.721-2.721 0-1.494 1.205-2.701 2.721-2.701z"/><path d="m64.325 25.39h-20.88c-1.769 0-3.181 1.413-3.181 3.18v41.513c0 1.203 0.646 2.223 1.622 2.762 0.456 0.27 0.996 0.416 1.559 0.416h20.88c1.765 0 3.2-1.414 3.2-3.178v-41.514c0-1.767-1.435-3.179-3.2-3.179zm-21.712 8.331c0-1.351 0.832-2.493 2.015-2.95 0.354-0.146 0.749-0.229 1.165-0.229h16.185c1.766 0 3.2 1.415 3.2 3.179v30.813c0 1.766-1.435 3.18-3.2 3.18h-16.185c-1.746 0-3.18-1.414-3.18-3.18v-30.813zm11.137 38.645c-0.976 0-1.767-0.789-1.767-1.787 0-0.166 0.021-0.311 0.083-0.455 0.022-0.189 0.105-0.355 0.208-0.5 0 0 0-0.02 0.021-0.041 0.312-0.457 0.852-0.77 1.454-0.77 0.997 0 1.786 0.791 1.786 1.766 0.001 0.998-0.788 1.787-1.785 1.787z"/></svg>
