<svg xmlns="http://www.w3.org/2000/svg" xmlns:xlink="http://www.w3.org/1999/xlink" viewBox="0 0 75 75" version="1.1" x="0px" y="0px"><g><path style="" d="M 25.78125 0 L 49.21875 0 L 49.21875 23.4375 L 25.78125 23.4375 Z M 25.78125 0 " stroke="none" fill-rule="nonzero" fill="rgb(0%,0%,0%)" fill-opacity="1"/><path style="" d="M 51.5625 0 L 75 0 L 75 23.4375 L 51.5625 23.4375 Z M 51.5625 0 " stroke="none" fill-rule="nonzero" fill="rgb(0%,0%,0%)" fill-opacity="1"/><path style="" d="M 0 0 L 23.4375 0 L 23.4375 23.4375 L 0 23.4375 Z M 0 0 " stroke="none" fill-rule="nonzero" fill="rgb(0%,0%,0%)" fill-opacity="1"/><path style="" d="M 25.78125 25.78125 L 49.21875 25.78125 L 49.21875 49.21875 L 25.78125 49.21875 Z M 25.78125 25.78125 " stroke="none" fill-rule="nonzero" fill="rgb(0%,0%,0%)" fill-opacity="1"/><path style="" d="M 51.5625 25.78125 L 75 25.78125 L 75 49.21875 L 51.5625 49.21875 Z M 51.5625 25.78125 " stroke="none" fill-rule="nonzero" fill="rgb(0%,0%,0%)" fill-opacity="1"/><path style="" d="M 0 25.78125 L 23.4375 25.78125 L 23.4375 49.21875 L 0 49.21875 Z M 0 25.78125 " stroke="none" fill-rule="nonzero" fill="rgb(0%,0%,0%)" fill-opacity="1"/><path style="" d="M 25.78125 51.5625 L 49.21875 51.5625 L 49.21875 75 L 25.78125 75 Z M 25.78125 51.5625 " stroke="none" fill-rule="nonzero" fill="rgb(0%,0%,0%)" fill-opacity="1"/><path style="" d="M 51.5625 51.5625 L 75 51.5625 L 75 75 L 51.5625 75 Z M 51.5625 51.5625 " stroke="none" fill-rule="nonzero" fill="rgb(0%,0%,0%)" fill-opacity="1"/><path style="" d="M 0 51.5625 L 23.4375 51.5625 L 23.4375 75 L 0 75 Z M 0 51.5625 " stroke="none" fill-rule="nonzero" fill="rgb(0%,0%,0%)" fill-opacity="1"/></g></svg>