<svg xmlns:rdf="http://www.w3.org/1999/02/22-rdf-syntax-ns#" xmlns="http://www.w3.org/2000/svg" enable-background="new 0 0 100 100" xml:space="preserve" height="91.781" width="100" version="1.1" y="0px" x="0px" xmlns:cc="http://creativecommons.org/ns#" xmlns:dc="http://purl.org/dc/elements/1.1/" viewBox="0 0 99.999519 91.780998"><metadata><rdf:RDF><cc:Work rdf:about=""><dc:format>image/svg+xml</dc:format><dc:type rdf:resource="http://purl.org/dc/dcmitype/StillImage"/><dc:title/></cc:Work></rdf:RDF></metadata><g transform="translate(-.00052556 -4.11)"><path d="m99.377 38.487-11.555-8.084v-24.808c0-0.819-0.669-1.485-1.495-1.485h-11.408c-0.822 0-1.485 0.666-1.485 1.485v14.739l-22.591-15.808c-0.5-0.361-1.194-0.361-1.693 0l-48.518 33.961c-0.322 0.229-0.548 0.562-0.61 0.965-0.065 0.382 0.018 0.784 0.243 1.11l6.606 9.424c0.295 0.416 0.756 0.639 1.228 0.639 0.288 0 0.59-0.077 0.854-0.271l2.897-2.026v46.071c0 0.819 0.674 1.492 1.496 1.492h25.506c0.822 0 1.488-0.673 1.488-1.492v-34.378h19.315v34.378c0 0.819 0.674 1.492 1.496 1.492h25.312c0.822 0 1.481-0.673 1.481-1.492v-46.217l3.108 2.172c0.681 0.479 1.61 0.319 2.075-0.367l6.603-9.424c0.229-0.326 0.316-0.729 0.247-1.11-0.062-0.403-0.288-0.736-0.6-0.966z"/></g></svg>
