<svg xmlns:rdf="http://www.w3.org/1999/02/22-rdf-syntax-ns#" xmlns="http://www.w3.org/2000/svg" enable-background="new 0 0 100 100" xml:space="preserve" height="85.661" width="76.073" version="1.1" y="0px" x="0px" xmlns:cc="http://creativecommons.org/ns#" xmlns:dc="http://purl.org/dc/elements/1.1/" viewBox="0 0 76.072998 85.661491"><metadata><rdf:RDF><cc:Work rdf:about=""><dc:format>image/svg+xml</dc:format><dc:type rdf:resource="http://purl.org/dc/dcmitype/StillImage"/><dc:title/></cc:Work></rdf:RDF></metadata><path d="m57.458 32.635c-1.689 5.972-3.226 6.301-4.151 5.672-1.144 6.433-4.604 14.722-15.762 15.157-11.334-0.869-14.925-9.356-15.935-15.891-0.906-0.072-2.104-1.348-3.39-5.895-1.76-6.222 0.109-7.141 1.693-6.992-1.164-3.268-1.188-6.484-0.408-9.458 0.82-3.502 2.712-6.308 4.835-8.477 1.341-1.426 2.861-2.675 4.472-3.696 1.311-0.912 2.761-1.692 4.345-2.227l0.002-0.001c1.237-0.418 2.555-0.688 3.95-0.753 4.31-0.373 7.575 0.706 9.92 2.095 3.5 1.932 4.829 4.489 4.829 4.489s8.809 0.619 4.952 19.086c1.186 0.409 2.022 2.036 0.648 6.891zm-19.421 53.026c14.85 0 28.295-6.012 38.036-15.734-0.218-4.202-1.64-9.537-7.206-10.952-9.545-2.427-17.301-7.887-17.301-7.887l-6.051 19.137-1.14 3.603-0.017-0.049-0.994 3.053-3.19-9.052c8.069-11.257-2.137-10.819-2.137-10.819s-10.206-0.439-2.138 10.818l-3.22 9.123-0.985-3.083-7.187-22.73s-7.756 5.46-17.301 7.887c-5.567 1.415-6.988 6.75-7.206 10.951 9.742 9.722 23.187 15.734 38.037 15.734z"/></svg>
