<svg xmlns="http://www.w3.org/2000/svg" xmlns:xlink="http://www.w3.org/1999/xlink" version="1.1" x="0px" y="0px" viewBox="0 0 100 100" enable-background="new 0 0 100 100" xml:space="preserve"><path d="M69.421,39.805c-1.689,5.972-3.226,6.301-4.151,5.672c-1.144,6.433-4.604,14.722-15.762,15.157  c-11.334-0.869-14.925-9.356-15.935-15.891c-0.906-0.072-2.104-1.348-3.39-5.895c-1.76-6.222,0.109-7.141,1.693-6.992  c-1.164-3.268-1.188-6.484-0.408-9.458c0.82-3.502,2.712-6.308,4.835-8.477c1.341-1.426,2.861-2.675,4.472-3.696  c1.311-0.912,2.761-1.692,4.345-2.227l0.002-0.001l0,0c1.237-0.418,2.555-0.688,3.95-0.753c4.31-0.373,7.575,0.706,9.92,2.095  c3.5,1.932,4.829,4.489,4.829,4.489s8.809,0.619,4.952,19.086l0,0C69.959,33.323,70.795,34.95,69.421,39.805z M50,92.831  c14.85,0,28.295-6.012,38.036-15.734c-0.218-4.202-1.64-9.537-7.206-10.952c-9.545-2.427-17.301-7.887-17.301-7.887l-6.051,19.137  l-1.14,3.603l-0.017-0.049l-0.994,3.053l-3.19-9.052C60.206,63.693,50,64.131,50,64.131s-10.206-0.439-2.138,10.818l-3.22,9.123  l-0.985-3.083l-7.187-22.73c0,0-7.756,5.46-17.301,7.887c-5.567,1.415-6.988,6.75-7.206,10.951  C21.705,86.819,35.15,92.831,50,92.831z"/></svg>