<svg xmlns="http://www.w3.org/2000/svg" xmlns:xlink="http://www.w3.org/1999/xlink" version="1.1" x="0px" y="0px" viewBox="0 0 100 100" enable-background="new 0 0 100 100" xml:space="preserve"><path d="M71.449,2.644H29.035c-2.882,0-5.219,2.336-5.219,5.219v84.563c0,2.881,2.336,5.219,5.219,5.219H71.45  c2.882,0,5.219-2.338,5.219-5.219V7.863C76.668,4.98,74.331,2.644,71.449,2.644z M45.16,6.59h10.173  c0.306,0,0.554,0.248,0.554,0.553s-0.248,0.553-0.554,0.553H45.16c-0.305,0-0.552-0.248-0.552-0.553S44.855,6.59,45.16,6.59z   M50.288,93.678c-1.729,0-3.131-1.4-3.131-3.131s1.402-3.132,3.131-3.132c1.729,0,3.131,1.401,3.131,3.132  S52.018,93.678,50.288,93.678z M71.77,83.45H28.714V11.62H71.77V83.45z"></path></svg>