<svg xmlns="http://www.w3.org/2000/svg" xmlns:xlink="http://www.w3.org/1999/xlink" version="1.1" x="0px" y="0px" viewBox="0 0 100 100" enable-background="new 0 0 100 100" xml:space="preserve"><g><path d="M59.513,73.156l6.003,18.476l1.159,3.568l3.563-1.163l1.336-0.431l1.336-0.436c1.963-0.639,3.043-2.759,2.408-4.723   l-6.003-18.477c-0.639-1.959-2.763-3.044-4.725-2.405l-1.338,0.431l-1.336,0.435l-3.561,1.16L59.513,73.156z"></path><path d="M38.799,9.412l6.005,18.476l1.159,3.564l3.563-1.158l1.333-0.434l1.338-0.435c1.964-0.638,3.043-2.764,2.406-4.723   l-6-18.476c-0.64-1.96-2.763-3.043-4.726-2.405l-1.337,0.434l-1.335,0.434l-3.562,1.158L38.799,9.412z"></path><path d="M34.68,6.816c-9.279,4.407-14.831,22.356-4.979,51.007c8.874,28.97,23.917,40.229,34.011,38.336   c0.149-0.029,0.585-0.189,0.585-0.189l-1.156-3.561L57.133,73.93l-1.155-3.565c0,0-0.44,0.145-0.588,0.19   c-4.787,1.556-9.531-12.893-11.083-17.477c-1.438-4.619-6.094-19.101-1.303-20.656c0.145-0.047,0.582-0.189,0.582-0.189   l-1.156-3.564l-6.004-18.477l-1.159-3.565C35.266,6.626,34.821,6.753,34.68,6.816z"></path></g></svg>