<svg xmlns:rdf="http://www.w3.org/1999/02/22-rdf-syntax-ns#" xmlns="http://www.w3.org/2000/svg" enable-background="new 0 0 100 100" xml:space="preserve" height="92.724" width="51" version="1.1" y="0px" x="0px" xmlns:cc="http://creativecommons.org/ns#" xmlns:dc="http://purl.org/dc/elements/1.1/" viewBox="0 0 50.999962 92.723846"><metadata><rdf:RDF><cc:Work rdf:about=""><dc:format>image/svg+xml</dc:format><dc:type rdf:resource="http://purl.org/dc/dcmitype/StillImage"/><dc:title/></cc:Work></rdf:RDF></metadata><g transform="translate(-24.5 -3.6378)"><path d="m59.513 73.156 6.003 18.476 1.159 3.568 3.563-1.163 1.336-0.431 1.336-0.436c1.963-0.639 3.043-2.759 2.408-4.723l-6.003-18.477c-0.639-1.959-2.763-3.044-4.725-2.405l-1.338 0.431-1.336 0.435-3.561 1.16 1.158 3.565z"/><path d="m38.799 9.412 6.005 18.476 1.159 3.564 3.563-1.158 1.333-0.434 1.338-0.435c1.964-0.638 3.043-2.764 2.406-4.723l-6-18.476c-0.64-1.96-2.763-3.043-4.726-2.405l-1.337 0.434-1.335 0.434-3.562 1.158 1.156 3.565z"/><path d="m34.68 6.816c-9.279 4.407-14.831 22.356-4.979 51.007 8.874 28.97 23.917 40.229 34.011 38.336 0.149-0.029 0.585-0.189 0.585-0.189l-1.156-3.561-6.008-18.479-1.155-3.565s-0.44 0.145-0.588 0.19c-4.787 1.556-9.531-12.893-11.083-17.477-1.438-4.619-6.094-19.101-1.303-20.656 0.145-0.047 0.582-0.189 0.582-0.189l-1.156-3.564-6.004-18.477-1.159-3.565c-0.001-0.001-0.446 0.126-0.587 0.189z"/></g></svg>
