<svg xmlns:rdf="http://www.w3.org/1999/02/22-rdf-syntax-ns#" xmlns="http://www.w3.org/2000/svg" enable-background="new 0 0 100 100" xml:space="preserve" height="84.08" width="68.246" version="1.1" y="0px" x="0px" xmlns:cc="http://creativecommons.org/ns#" xmlns:dc="http://purl.org/dc/elements/1.1/" viewBox="0 0 68.246002 84.080299"><metadata><rdf:RDF><cc:Work rdf:about=""><dc:format>image/svg+xml</dc:format><dc:type rdf:resource="http://purl.org/dc/dcmitype/StillImage"/><dc:title/></cc:Work></rdf:RDF></metadata><path d="m29.804 77.852 4.255 6.228c-12.873-0.061-24.703-4.53-34.059-11.977v-5.868s0.248-4.811 4.954-7.025 7.1-2.656 7.265-2.745 6.357-1.535 8.559-3.719l-5.697 14.197 6.605-0.974 8.118 11.883zm33.488-18.642c-4.706-2.214-7.1-2.656-7.265-2.745s-6.357-1.535-8.559-3.719l5.697 14.197-6.605-0.974-8.118 11.883-4.255 6.228c12.873-0.061 24.703-4.53 34.059-11.977v-5.868s-0.248-4.811-4.954-7.025zm-19.536-11.675s10.613 0.325 15.649-4.819c0 0-7.329-2.076-6.012-15.417 1.317-13.34-1.642-25.054-12.364-24.062 0 0-4.648-5.593-13.898-2.076-3.176 1.208-11.698 4.261-11.264 22.745s-6.569 18.593-6.569 18.593 3.61 5.252 15.866 5.144v5.516l8.897 30.921h0.121l9.574-30.921v-5.624z"/></svg>
